<mxfile host="app.diagrams.net" modified="2022-10-03T09:48:46.417Z" agent="5.0 (Macintosh; Intel Mac OS X 10_15_7) AppleWebKit/537.36 (KHTML, like Gecko) Chrome/105.0.0.0 Safari/537.36" etag="FmW05pe-gxyCJTDCIb64" version="20.4.0" type="github">
  <diagram id="xeiWIUsCd8FCCVY9EHyw" name="Page-1">
    <mxGraphModel dx="1390" dy="3070" grid="1" gridSize="10" guides="1" tooltips="1" connect="1" arrows="1" fold="1" page="1" pageScale="1" pageWidth="2336" pageHeight="1654" math="0" shadow="0">
      <root>
        <mxCell id="0" />
        <mxCell id="1" parent="0" />
        <mxCell id="ZgKXBUmyCraqR8mIBlqp-3" value="" style="group" vertex="1" connectable="0" parent="1">
          <mxGeometry y="750" width="260" height="160" as="geometry" />
        </mxCell>
        <mxCell id="ZgKXBUmyCraqR8mIBlqp-65" value="" style="group" vertex="1" connectable="0" parent="ZgKXBUmyCraqR8mIBlqp-3">
          <mxGeometry x="15" width="230" height="160" as="geometry" />
        </mxCell>
        <mxCell id="ZgKXBUmyCraqR8mIBlqp-1" value="" style="rounded=0;whiteSpace=wrap;html=1;" vertex="1" parent="ZgKXBUmyCraqR8mIBlqp-65">
          <mxGeometry width="230" height="160" as="geometry" />
        </mxCell>
        <mxCell id="ZgKXBUmyCraqR8mIBlqp-2" value="&lt;font style=&quot;font-size: 30px;&quot;&gt;Login Page&lt;/font&gt;" style="text;html=1;strokeColor=none;fillColor=none;align=center;verticalAlign=middle;whiteSpace=wrap;rounded=0;container=1;" vertex="1" parent="ZgKXBUmyCraqR8mIBlqp-65">
          <mxGeometry x="5" y="10" width="220" height="140" as="geometry" />
        </mxCell>
        <mxCell id="ZgKXBUmyCraqR8mIBlqp-4" value="" style="group" vertex="1" connectable="0" parent="1">
          <mxGeometry x="280" y="750" width="260" height="160" as="geometry" />
        </mxCell>
        <mxCell id="ZgKXBUmyCraqR8mIBlqp-5" value="" style="rounded=0;whiteSpace=wrap;html=1;" vertex="1" parent="ZgKXBUmyCraqR8mIBlqp-4">
          <mxGeometry x="15" width="230" height="160" as="geometry" />
        </mxCell>
        <mxCell id="ZgKXBUmyCraqR8mIBlqp-6" value="&lt;font style=&quot;font-size: 30px;&quot;&gt;Home Page/&lt;br&gt;Island Selection&lt;br&gt;&lt;/font&gt;" style="text;html=1;strokeColor=none;fillColor=none;align=center;verticalAlign=middle;whiteSpace=wrap;rounded=0;" vertex="1" parent="ZgKXBUmyCraqR8mIBlqp-4">
          <mxGeometry y="10" width="260" height="140" as="geometry" />
        </mxCell>
        <mxCell id="ZgKXBUmyCraqR8mIBlqp-7" value="" style="group" vertex="1" connectable="0" parent="1">
          <mxGeometry x="280" y="260" width="260" height="160" as="geometry" />
        </mxCell>
        <mxCell id="ZgKXBUmyCraqR8mIBlqp-8" value="" style="rounded=0;whiteSpace=wrap;html=1;" vertex="1" parent="ZgKXBUmyCraqR8mIBlqp-7">
          <mxGeometry x="15" width="230" height="160" as="geometry" />
        </mxCell>
        <mxCell id="ZgKXBUmyCraqR8mIBlqp-9" value="&lt;font style=&quot;font-size: 30px;&quot;&gt;Financial Dashboard&lt;/font&gt;" style="text;html=1;strokeColor=none;fillColor=none;align=center;verticalAlign=middle;whiteSpace=wrap;rounded=0;" vertex="1" parent="ZgKXBUmyCraqR8mIBlqp-7">
          <mxGeometry y="10" width="260" height="140" as="geometry" />
        </mxCell>
        <mxCell id="ZgKXBUmyCraqR8mIBlqp-10" value="" style="group" vertex="1" connectable="0" parent="1">
          <mxGeometry x="280" y="1300" width="260" height="160" as="geometry" />
        </mxCell>
        <mxCell id="ZgKXBUmyCraqR8mIBlqp-11" value="" style="rounded=0;whiteSpace=wrap;html=1;" vertex="1" parent="ZgKXBUmyCraqR8mIBlqp-10">
          <mxGeometry x="15" width="230" height="160" as="geometry" />
        </mxCell>
        <mxCell id="ZgKXBUmyCraqR8mIBlqp-12" value="&lt;font style=&quot;font-size: 30px;&quot;&gt;Profile Page&lt;/font&gt;" style="text;html=1;strokeColor=none;fillColor=none;align=center;verticalAlign=middle;whiteSpace=wrap;rounded=0;" vertex="1" parent="ZgKXBUmyCraqR8mIBlqp-10">
          <mxGeometry y="10" width="260" height="140" as="geometry" />
        </mxCell>
        <mxCell id="ZgKXBUmyCraqR8mIBlqp-13" value="" style="group" vertex="1" connectable="0" parent="1">
          <mxGeometry x="620" y="750" width="260" height="160" as="geometry" />
        </mxCell>
        <mxCell id="ZgKXBUmyCraqR8mIBlqp-14" value="" style="rounded=0;whiteSpace=wrap;html=1;" vertex="1" parent="ZgKXBUmyCraqR8mIBlqp-13">
          <mxGeometry x="15" width="230" height="160" as="geometry" />
        </mxCell>
        <mxCell id="ZgKXBUmyCraqR8mIBlqp-15" value="&lt;span style=&quot;font-size: 30px;&quot;&gt;Topic Islands&lt;/span&gt;" style="text;html=1;strokeColor=none;fillColor=none;align=center;verticalAlign=middle;whiteSpace=wrap;rounded=0;" vertex="1" parent="ZgKXBUmyCraqR8mIBlqp-13">
          <mxGeometry y="10" width="260" height="140" as="geometry" />
        </mxCell>
        <mxCell id="ZgKXBUmyCraqR8mIBlqp-16" value="" style="group" vertex="1" connectable="0" parent="1">
          <mxGeometry x="1010" y="750" width="260" height="160" as="geometry" />
        </mxCell>
        <mxCell id="ZgKXBUmyCraqR8mIBlqp-17" value="" style="rounded=0;whiteSpace=wrap;html=1;" vertex="1" parent="ZgKXBUmyCraqR8mIBlqp-16">
          <mxGeometry x="15" width="230" height="160" as="geometry" />
        </mxCell>
        <mxCell id="ZgKXBUmyCraqR8mIBlqp-18" value="&lt;span style=&quot;font-size: 30px;&quot;&gt;Lessons&lt;/span&gt;" style="text;html=1;strokeColor=none;fillColor=none;align=center;verticalAlign=middle;whiteSpace=wrap;rounded=0;" vertex="1" parent="ZgKXBUmyCraqR8mIBlqp-16">
          <mxGeometry y="10" width="260" height="140" as="geometry" />
        </mxCell>
        <mxCell id="ZgKXBUmyCraqR8mIBlqp-19" value="" style="group" vertex="1" connectable="0" parent="1">
          <mxGeometry x="1370" y="750" width="260" height="160" as="geometry" />
        </mxCell>
        <mxCell id="ZgKXBUmyCraqR8mIBlqp-20" value="" style="rounded=0;whiteSpace=wrap;html=1;" vertex="1" parent="ZgKXBUmyCraqR8mIBlqp-19">
          <mxGeometry x="15" width="230" height="160" as="geometry" />
        </mxCell>
        <mxCell id="ZgKXBUmyCraqR8mIBlqp-21" value="&lt;span style=&quot;font-size: 30px;&quot;&gt;Quiz&lt;/span&gt;" style="text;html=1;strokeColor=none;fillColor=none;align=center;verticalAlign=middle;whiteSpace=wrap;rounded=0;" vertex="1" parent="ZgKXBUmyCraqR8mIBlqp-19">
          <mxGeometry y="10" width="260" height="140" as="geometry" />
        </mxCell>
        <mxCell id="ZgKXBUmyCraqR8mIBlqp-22" value="" style="group" vertex="1" connectable="0" parent="1">
          <mxGeometry x="620" y="1120" width="260" height="160" as="geometry" />
        </mxCell>
        <mxCell id="ZgKXBUmyCraqR8mIBlqp-23" value="" style="rounded=0;whiteSpace=wrap;html=1;" vertex="1" parent="ZgKXBUmyCraqR8mIBlqp-22">
          <mxGeometry x="15" width="230" height="160" as="geometry" />
        </mxCell>
        <mxCell id="ZgKXBUmyCraqR8mIBlqp-24" value="&lt;span style=&quot;font-size: 30px;&quot;&gt;Social Network&lt;/span&gt;" style="text;html=1;strokeColor=none;fillColor=none;align=center;verticalAlign=middle;whiteSpace=wrap;rounded=0;" vertex="1" parent="ZgKXBUmyCraqR8mIBlqp-22">
          <mxGeometry y="10" width="260" height="140" as="geometry" />
        </mxCell>
        <mxCell id="ZgKXBUmyCraqR8mIBlqp-25" value="" style="group" vertex="1" connectable="0" parent="1">
          <mxGeometry x="620" y="1300" width="260" height="160" as="geometry" />
        </mxCell>
        <mxCell id="ZgKXBUmyCraqR8mIBlqp-26" value="" style="rounded=0;whiteSpace=wrap;html=1;" vertex="1" parent="ZgKXBUmyCraqR8mIBlqp-25">
          <mxGeometry x="15" width="230" height="160" as="geometry" />
        </mxCell>
        <mxCell id="ZgKXBUmyCraqR8mIBlqp-27" value="&lt;span style=&quot;font-size: 30px;&quot;&gt;Information Centre&lt;/span&gt;" style="text;html=1;strokeColor=none;fillColor=none;align=center;verticalAlign=middle;whiteSpace=wrap;rounded=0;" vertex="1" parent="ZgKXBUmyCraqR8mIBlqp-25">
          <mxGeometry x="20" y="10" width="220" height="140" as="geometry" />
        </mxCell>
        <mxCell id="ZgKXBUmyCraqR8mIBlqp-31" value="" style="group" vertex="1" connectable="0" parent="1">
          <mxGeometry x="620" y="940" width="260" height="160" as="geometry" />
        </mxCell>
        <mxCell id="ZgKXBUmyCraqR8mIBlqp-32" value="" style="rounded=0;whiteSpace=wrap;html=1;" vertex="1" parent="ZgKXBUmyCraqR8mIBlqp-31">
          <mxGeometry x="15" width="230" height="160" as="geometry" />
        </mxCell>
        <mxCell id="ZgKXBUmyCraqR8mIBlqp-33" value="&lt;span style=&quot;font-size: 30px;&quot;&gt;Voucher Redemption&lt;/span&gt;" style="text;html=1;strokeColor=none;fillColor=none;align=center;verticalAlign=middle;whiteSpace=wrap;rounded=0;" vertex="1" parent="ZgKXBUmyCraqR8mIBlqp-31">
          <mxGeometry y="10" width="260" height="140" as="geometry" />
        </mxCell>
        <mxCell id="ZgKXBUmyCraqR8mIBlqp-34" value="" style="group" vertex="1" connectable="0" parent="1">
          <mxGeometry x="1010" y="1300" width="260" height="160" as="geometry" />
        </mxCell>
        <mxCell id="ZgKXBUmyCraqR8mIBlqp-35" value="" style="rounded=0;whiteSpace=wrap;html=1;" vertex="1" parent="ZgKXBUmyCraqR8mIBlqp-34">
          <mxGeometry x="15" width="230" height="160" as="geometry" />
        </mxCell>
        <mxCell id="ZgKXBUmyCraqR8mIBlqp-36" value="&lt;span style=&quot;font-size: 30px;&quot;&gt;Help Page&lt;/span&gt;" style="text;html=1;strokeColor=none;fillColor=none;align=center;verticalAlign=middle;whiteSpace=wrap;rounded=0;" vertex="1" parent="ZgKXBUmyCraqR8mIBlqp-34">
          <mxGeometry x="20" y="10" width="220" height="140" as="geometry" />
        </mxCell>
        <mxCell id="ZgKXBUmyCraqR8mIBlqp-37" value="" style="group" vertex="1" connectable="0" parent="1">
          <mxGeometry x="620" y="570" width="260" height="160" as="geometry" />
        </mxCell>
        <mxCell id="ZgKXBUmyCraqR8mIBlqp-38" value="" style="rounded=0;whiteSpace=wrap;html=1;" vertex="1" parent="ZgKXBUmyCraqR8mIBlqp-37">
          <mxGeometry x="15" width="230" height="160" as="geometry" />
        </mxCell>
        <mxCell id="ZgKXBUmyCraqR8mIBlqp-39" value="&lt;span style=&quot;font-size: 30px;&quot;&gt;Expense Tracker&lt;/span&gt;" style="text;html=1;strokeColor=none;fillColor=none;align=center;verticalAlign=middle;whiteSpace=wrap;rounded=0;" vertex="1" parent="ZgKXBUmyCraqR8mIBlqp-37">
          <mxGeometry x="20" y="10" width="220" height="140" as="geometry" />
        </mxCell>
        <mxCell id="ZgKXBUmyCraqR8mIBlqp-40" value="" style="group" vertex="1" connectable="0" parent="1">
          <mxGeometry x="620" y="370" width="260" height="160" as="geometry" />
        </mxCell>
        <mxCell id="ZgKXBUmyCraqR8mIBlqp-41" value="" style="rounded=0;whiteSpace=wrap;html=1;" vertex="1" parent="ZgKXBUmyCraqR8mIBlqp-40">
          <mxGeometry x="15" width="230" height="160" as="geometry" />
        </mxCell>
        <mxCell id="ZgKXBUmyCraqR8mIBlqp-42" value="&lt;span style=&quot;font-size: 30px;&quot;&gt;Financial Profiler&lt;/span&gt;" style="text;html=1;strokeColor=none;fillColor=none;align=center;verticalAlign=middle;whiteSpace=wrap;rounded=0;" vertex="1" parent="ZgKXBUmyCraqR8mIBlqp-40">
          <mxGeometry x="20" y="10" width="220" height="140" as="geometry" />
        </mxCell>
        <mxCell id="ZgKXBUmyCraqR8mIBlqp-43" value="" style="group" vertex="1" connectable="0" parent="1">
          <mxGeometry x="620" y="183" width="260" height="160" as="geometry" />
        </mxCell>
        <mxCell id="ZgKXBUmyCraqR8mIBlqp-44" value="" style="rounded=0;whiteSpace=wrap;html=1;" vertex="1" parent="ZgKXBUmyCraqR8mIBlqp-43">
          <mxGeometry x="15" width="230" height="160" as="geometry" />
        </mxCell>
        <mxCell id="ZgKXBUmyCraqR8mIBlqp-45" value="&lt;span style=&quot;font-size: 30px;&quot;&gt;Financial &lt;br&gt;Robo-Advisor&lt;/span&gt;" style="text;html=1;strokeColor=none;fillColor=none;align=center;verticalAlign=middle;whiteSpace=wrap;rounded=0;" vertex="1" parent="ZgKXBUmyCraqR8mIBlqp-43">
          <mxGeometry x="20" y="10" width="220" height="140" as="geometry" />
        </mxCell>
        <mxCell id="ZgKXBUmyCraqR8mIBlqp-46" value="" style="group" vertex="1" connectable="0" parent="1">
          <mxGeometry x="620" y="1482" width="260" height="160" as="geometry" />
        </mxCell>
        <mxCell id="ZgKXBUmyCraqR8mIBlqp-47" value="" style="rounded=0;whiteSpace=wrap;html=1;" vertex="1" parent="ZgKXBUmyCraqR8mIBlqp-46">
          <mxGeometry x="15" width="230" height="160" as="geometry" />
        </mxCell>
        <mxCell id="ZgKXBUmyCraqR8mIBlqp-48" value="&lt;span style=&quot;font-size: 30px;&quot;&gt;Settings&lt;/span&gt;" style="text;html=1;strokeColor=none;fillColor=none;align=center;verticalAlign=middle;whiteSpace=wrap;rounded=0;" vertex="1" parent="ZgKXBUmyCraqR8mIBlqp-46">
          <mxGeometry x="20" y="10" width="220" height="140" as="geometry" />
        </mxCell>
        <mxCell id="ZgKXBUmyCraqR8mIBlqp-49" value="" style="group" vertex="1" connectable="0" parent="1">
          <mxGeometry x="1010" y="940" width="260" height="160" as="geometry" />
        </mxCell>
        <mxCell id="ZgKXBUmyCraqR8mIBlqp-50" value="" style="rounded=0;whiteSpace=wrap;html=1;" vertex="1" parent="ZgKXBUmyCraqR8mIBlqp-49">
          <mxGeometry x="15" width="230" height="160" as="geometry" />
        </mxCell>
        <mxCell id="ZgKXBUmyCraqR8mIBlqp-51" value="&lt;span style=&quot;font-size: 30px;&quot;&gt;Leaderboard&lt;/span&gt;" style="text;html=1;strokeColor=none;fillColor=none;align=center;verticalAlign=middle;whiteSpace=wrap;rounded=0;" vertex="1" parent="ZgKXBUmyCraqR8mIBlqp-49">
          <mxGeometry x="20" y="10" width="220" height="140" as="geometry" />
        </mxCell>
        <mxCell id="ZgKXBUmyCraqR8mIBlqp-52" value="" style="group" vertex="1" connectable="0" parent="1">
          <mxGeometry x="1010" y="1120" width="260" height="160" as="geometry" />
        </mxCell>
        <mxCell id="ZgKXBUmyCraqR8mIBlqp-53" value="" style="rounded=0;whiteSpace=wrap;html=1;" vertex="1" parent="ZgKXBUmyCraqR8mIBlqp-52">
          <mxGeometry x="15" width="230" height="160" as="geometry" />
        </mxCell>
        <mxCell id="ZgKXBUmyCraqR8mIBlqp-54" value="&lt;span style=&quot;font-size: 30px;&quot;&gt;Friends&lt;/span&gt;" style="text;html=1;strokeColor=none;fillColor=none;align=center;verticalAlign=middle;whiteSpace=wrap;rounded=0;" vertex="1" parent="ZgKXBUmyCraqR8mIBlqp-52">
          <mxGeometry x="20" y="10" width="220" height="140" as="geometry" />
        </mxCell>
        <mxCell id="ZgKXBUmyCraqR8mIBlqp-55" value="" style="group" vertex="1" connectable="0" parent="1">
          <mxGeometry x="1010" y="1482" width="260" height="160" as="geometry" />
        </mxCell>
        <mxCell id="ZgKXBUmyCraqR8mIBlqp-56" value="" style="rounded=0;whiteSpace=wrap;html=1;" vertex="1" parent="ZgKXBUmyCraqR8mIBlqp-55">
          <mxGeometry x="15" width="230" height="160" as="geometry" />
        </mxCell>
        <mxCell id="ZgKXBUmyCraqR8mIBlqp-57" value="&lt;span style=&quot;font-size: 30px;&quot;&gt;Specific Articles&lt;/span&gt;" style="text;html=1;strokeColor=none;fillColor=none;align=center;verticalAlign=middle;whiteSpace=wrap;rounded=0;" vertex="1" parent="ZgKXBUmyCraqR8mIBlqp-55">
          <mxGeometry x="20" y="10" width="220" height="140" as="geometry" />
        </mxCell>
        <mxCell id="ZgKXBUmyCraqR8mIBlqp-58" value="" style="group" vertex="1" connectable="0" parent="1">
          <mxGeometry x="620" width="260" height="160" as="geometry" />
        </mxCell>
        <mxCell id="ZgKXBUmyCraqR8mIBlqp-59" value="" style="rounded=0;whiteSpace=wrap;html=1;" vertex="1" parent="ZgKXBUmyCraqR8mIBlqp-58">
          <mxGeometry x="15" width="230" height="160" as="geometry" />
        </mxCell>
        <mxCell id="ZgKXBUmyCraqR8mIBlqp-60" value="&lt;span style=&quot;font-size: 30px;&quot;&gt;Financial &lt;br&gt;Robo-Advisor&lt;/span&gt;" style="text;html=1;strokeColor=none;fillColor=none;align=center;verticalAlign=middle;whiteSpace=wrap;rounded=0;" vertex="1" parent="ZgKXBUmyCraqR8mIBlqp-58">
          <mxGeometry x="20" y="10" width="220" height="140" as="geometry" />
        </mxCell>
        <mxCell id="ZgKXBUmyCraqR8mIBlqp-67" style="edgeStyle=orthogonalEdgeStyle;rounded=0;orthogonalLoop=1;jettySize=auto;html=1;exitX=1;exitY=0.5;exitDx=0;exitDy=0;strokeWidth=4;fontSize=30;" edge="1" parent="1" source="ZgKXBUmyCraqR8mIBlqp-2" target="ZgKXBUmyCraqR8mIBlqp-6">
          <mxGeometry relative="1" as="geometry" />
        </mxCell>
        <mxCell id="ZgKXBUmyCraqR8mIBlqp-70" style="edgeStyle=orthogonalEdgeStyle;rounded=0;orthogonalLoop=1;jettySize=auto;html=1;exitX=0.5;exitY=0;exitDx=0;exitDy=0;entryX=0.5;entryY=1;entryDx=0;entryDy=0;strokeWidth=4;fontSize=30;" edge="1" parent="1" source="ZgKXBUmyCraqR8mIBlqp-6" target="ZgKXBUmyCraqR8mIBlqp-9">
          <mxGeometry relative="1" as="geometry" />
        </mxCell>
        <mxCell id="ZgKXBUmyCraqR8mIBlqp-71" style="edgeStyle=orthogonalEdgeStyle;rounded=0;orthogonalLoop=1;jettySize=auto;html=1;exitX=0.5;exitY=1;exitDx=0;exitDy=0;entryX=0.5;entryY=0;entryDx=0;entryDy=0;strokeWidth=4;fontSize=30;" edge="1" parent="1" source="ZgKXBUmyCraqR8mIBlqp-6" target="ZgKXBUmyCraqR8mIBlqp-12">
          <mxGeometry relative="1" as="geometry" />
        </mxCell>
        <mxCell id="ZgKXBUmyCraqR8mIBlqp-72" style="edgeStyle=orthogonalEdgeStyle;rounded=0;orthogonalLoop=1;jettySize=auto;html=1;exitX=1;exitY=0.5;exitDx=0;exitDy=0;entryX=0;entryY=0.5;entryDx=0;entryDy=0;strokeWidth=4;fontSize=30;" edge="1" parent="1" source="ZgKXBUmyCraqR8mIBlqp-6" target="ZgKXBUmyCraqR8mIBlqp-15">
          <mxGeometry relative="1" as="geometry" />
        </mxCell>
        <mxCell id="ZgKXBUmyCraqR8mIBlqp-74" style="edgeStyle=orthogonalEdgeStyle;rounded=0;orthogonalLoop=1;jettySize=auto;html=1;exitX=1;exitY=0.5;exitDx=0;exitDy=0;entryX=0;entryY=0.5;entryDx=0;entryDy=0;strokeWidth=4;fontSize=30;" edge="1" parent="1" source="ZgKXBUmyCraqR8mIBlqp-6" target="ZgKXBUmyCraqR8mIBlqp-33">
          <mxGeometry relative="1" as="geometry" />
        </mxCell>
        <mxCell id="ZgKXBUmyCraqR8mIBlqp-76" style="edgeStyle=orthogonalEdgeStyle;rounded=0;orthogonalLoop=1;jettySize=auto;html=1;exitX=1;exitY=0.5;exitDx=0;exitDy=0;entryX=0;entryY=0.5;entryDx=0;entryDy=0;strokeWidth=4;fontSize=30;" edge="1" parent="1" source="ZgKXBUmyCraqR8mIBlqp-12" target="ZgKXBUmyCraqR8mIBlqp-24">
          <mxGeometry relative="1" as="geometry" />
        </mxCell>
        <mxCell id="ZgKXBUmyCraqR8mIBlqp-77" style="edgeStyle=orthogonalEdgeStyle;rounded=0;orthogonalLoop=1;jettySize=auto;html=1;exitX=1;exitY=0.5;exitDx=0;exitDy=0;entryX=0;entryY=0.5;entryDx=0;entryDy=0;strokeWidth=4;fontSize=30;" edge="1" parent="1" source="ZgKXBUmyCraqR8mIBlqp-12" target="ZgKXBUmyCraqR8mIBlqp-27">
          <mxGeometry relative="1" as="geometry" />
        </mxCell>
        <mxCell id="ZgKXBUmyCraqR8mIBlqp-78" style="edgeStyle=orthogonalEdgeStyle;rounded=0;orthogonalLoop=1;jettySize=auto;html=1;exitX=1;exitY=0.5;exitDx=0;exitDy=0;entryX=0;entryY=0.5;entryDx=0;entryDy=0;strokeWidth=4;fontSize=30;" edge="1" parent="1" source="ZgKXBUmyCraqR8mIBlqp-12" target="ZgKXBUmyCraqR8mIBlqp-48">
          <mxGeometry relative="1" as="geometry">
            <Array as="points">
              <mxPoint x="580" y="1380" />
              <mxPoint x="580" y="1562" />
            </Array>
          </mxGeometry>
        </mxCell>
        <mxCell id="ZgKXBUmyCraqR8mIBlqp-79" style="edgeStyle=orthogonalEdgeStyle;rounded=0;orthogonalLoop=1;jettySize=auto;html=1;exitX=1;exitY=0.5;exitDx=0;exitDy=0;entryX=0;entryY=0.5;entryDx=0;entryDy=0;strokeWidth=4;fontSize=30;" edge="1" parent="1" source="ZgKXBUmyCraqR8mIBlqp-27" target="ZgKXBUmyCraqR8mIBlqp-36">
          <mxGeometry relative="1" as="geometry" />
        </mxCell>
        <mxCell id="ZgKXBUmyCraqR8mIBlqp-80" style="edgeStyle=orthogonalEdgeStyle;rounded=0;orthogonalLoop=1;jettySize=auto;html=1;exitX=1;exitY=0.5;exitDx=0;exitDy=0;entryX=0;entryY=0.5;entryDx=0;entryDy=0;strokeWidth=4;fontSize=30;" edge="1" parent="1" source="ZgKXBUmyCraqR8mIBlqp-27" target="ZgKXBUmyCraqR8mIBlqp-57">
          <mxGeometry relative="1" as="geometry" />
        </mxCell>
        <mxCell id="ZgKXBUmyCraqR8mIBlqp-81" style="edgeStyle=orthogonalEdgeStyle;rounded=0;orthogonalLoop=1;jettySize=auto;html=1;exitX=1;exitY=0.5;exitDx=0;exitDy=0;entryX=0;entryY=0.5;entryDx=0;entryDy=0;strokeWidth=4;fontSize=30;" edge="1" parent="1" source="ZgKXBUmyCraqR8mIBlqp-24" target="ZgKXBUmyCraqR8mIBlqp-54">
          <mxGeometry relative="1" as="geometry" />
        </mxCell>
        <mxCell id="ZgKXBUmyCraqR8mIBlqp-82" style="edgeStyle=orthogonalEdgeStyle;rounded=0;orthogonalLoop=1;jettySize=auto;html=1;exitX=1;exitY=0.5;exitDx=0;exitDy=0;entryX=0;entryY=0.5;entryDx=0;entryDy=0;strokeWidth=4;fontSize=30;" edge="1" parent="1" source="ZgKXBUmyCraqR8mIBlqp-24" target="ZgKXBUmyCraqR8mIBlqp-51">
          <mxGeometry relative="1" as="geometry" />
        </mxCell>
        <mxCell id="ZgKXBUmyCraqR8mIBlqp-83" style="edgeStyle=orthogonalEdgeStyle;rounded=0;orthogonalLoop=1;jettySize=auto;html=1;exitX=1;exitY=0.5;exitDx=0;exitDy=0;entryX=0;entryY=0.5;entryDx=0;entryDy=0;strokeWidth=4;fontSize=30;" edge="1" parent="1" source="ZgKXBUmyCraqR8mIBlqp-15" target="ZgKXBUmyCraqR8mIBlqp-18">
          <mxGeometry relative="1" as="geometry" />
        </mxCell>
        <mxCell id="ZgKXBUmyCraqR8mIBlqp-84" style="edgeStyle=orthogonalEdgeStyle;rounded=0;orthogonalLoop=1;jettySize=auto;html=1;exitX=1;exitY=0.5;exitDx=0;exitDy=0;entryX=0;entryY=0.5;entryDx=0;entryDy=0;strokeWidth=4;fontSize=30;" edge="1" parent="1" source="ZgKXBUmyCraqR8mIBlqp-18" target="ZgKXBUmyCraqR8mIBlqp-21">
          <mxGeometry relative="1" as="geometry" />
        </mxCell>
        <mxCell id="ZgKXBUmyCraqR8mIBlqp-86" style="edgeStyle=orthogonalEdgeStyle;rounded=0;orthogonalLoop=1;jettySize=auto;html=1;exitX=1;exitY=0.5;exitDx=0;exitDy=0;entryX=0;entryY=0.5;entryDx=0;entryDy=0;strokeWidth=4;fontSize=30;" edge="1" parent="1" source="ZgKXBUmyCraqR8mIBlqp-9" target="ZgKXBUmyCraqR8mIBlqp-42">
          <mxGeometry relative="1" as="geometry">
            <Array as="points">
              <mxPoint x="580" y="340" />
              <mxPoint x="580" y="450" />
            </Array>
          </mxGeometry>
        </mxCell>
        <mxCell id="ZgKXBUmyCraqR8mIBlqp-88" style="edgeStyle=orthogonalEdgeStyle;rounded=0;orthogonalLoop=1;jettySize=auto;html=1;exitX=1;exitY=0.5;exitDx=0;exitDy=0;entryX=0;entryY=0.5;entryDx=0;entryDy=0;strokeWidth=4;fontSize=30;" edge="1" parent="1" source="ZgKXBUmyCraqR8mIBlqp-9" target="ZgKXBUmyCraqR8mIBlqp-45">
          <mxGeometry relative="1" as="geometry">
            <Array as="points">
              <mxPoint x="580" y="340" />
              <mxPoint x="580" y="263" />
            </Array>
          </mxGeometry>
        </mxCell>
        <mxCell id="ZgKXBUmyCraqR8mIBlqp-89" style="edgeStyle=orthogonalEdgeStyle;rounded=0;orthogonalLoop=1;jettySize=auto;html=1;exitX=1;exitY=0.5;exitDx=0;exitDy=0;entryX=0;entryY=0.5;entryDx=0;entryDy=0;strokeWidth=4;fontSize=30;" edge="1" parent="1" source="ZgKXBUmyCraqR8mIBlqp-9" target="ZgKXBUmyCraqR8mIBlqp-60">
          <mxGeometry relative="1" as="geometry">
            <Array as="points">
              <mxPoint x="580" y="340" />
              <mxPoint x="580" y="80" />
            </Array>
          </mxGeometry>
        </mxCell>
        <mxCell id="ZgKXBUmyCraqR8mIBlqp-90" style="edgeStyle=orthogonalEdgeStyle;rounded=0;orthogonalLoop=1;jettySize=auto;html=1;exitX=1;exitY=0.5;exitDx=0;exitDy=0;entryX=0;entryY=0.5;entryDx=0;entryDy=0;strokeWidth=4;fontSize=30;" edge="1" parent="1" source="ZgKXBUmyCraqR8mIBlqp-9" target="ZgKXBUmyCraqR8mIBlqp-39">
          <mxGeometry relative="1" as="geometry">
            <Array as="points">
              <mxPoint x="580" y="340" />
              <mxPoint x="580" y="650" />
            </Array>
          </mxGeometry>
        </mxCell>
        <mxCell id="ZgKXBUmyCraqR8mIBlqp-92" style="edgeStyle=orthogonalEdgeStyle;rounded=0;orthogonalLoop=1;jettySize=auto;html=1;exitX=1;exitY=0.25;exitDx=0;exitDy=0;entryX=0;entryY=0.75;entryDx=0;entryDy=0;strokeWidth=4;fontSize=30;" edge="1" parent="1" source="ZgKXBUmyCraqR8mIBlqp-6" target="ZgKXBUmyCraqR8mIBlqp-39">
          <mxGeometry relative="1" as="geometry">
            <Array as="points">
              <mxPoint x="580" y="795" />
              <mxPoint x="580" y="685" />
            </Array>
          </mxGeometry>
        </mxCell>
      </root>
    </mxGraphModel>
  </diagram>
</mxfile>
